<svg width="470" height="470" viewBox="0 0 470 470" fill="none" xmlns="http://www.w3.org/2000/svg">
<path d="M235 0.333313C188.587 0.333313 143.217 14.0963 104.626 39.8818C66.0354 65.6673 35.9576 102.317 18.1962 145.197C0.434869 188.077 -4.21231 235.26 4.84235 280.781C13.897 326.302 36.2469 368.116 69.0656 400.934C101.884 433.753 143.698 456.103 189.219 465.158C234.74 474.212 281.923 469.565 324.803 451.804C367.683 434.042 404.333 403.965 430.118 365.374C455.904 326.783 469.667 281.413 469.667 235C469.667 172.763 444.943 113.074 400.934 69.0656C356.926 25.0571 297.237 0.333313 235 0.333313ZM341.667 235C341.667 240.658 339.419 246.084 335.418 250.085C331.417 254.086 325.991 256.333 320.333 256.333C314.675 256.333 309.249 254.086 305.248 250.085C301.248 246.084 299 240.658 299 235V192.333C299 181.017 294.505 170.165 286.503 162.163C278.502 154.162 267.649 149.667 256.333 149.667C245.017 149.667 234.165 154.162 226.163 162.163C218.162 170.165 213.667 181.017 213.667 192.333V290.253L241.187 262.52C245.204 258.503 250.652 256.246 256.333 256.246C262.014 256.246 267.463 258.503 271.48 262.52C275.497 266.537 277.754 271.986 277.754 277.667C277.754 283.348 275.497 288.796 271.48 292.813L207.48 356.813C205.451 358.756 203.059 360.278 200.44 361.293C197.886 362.422 195.125 363.005 192.333 363.005C189.541 363.005 186.78 362.422 184.227 361.293C181.608 360.278 179.216 358.756 177.187 356.813L113.187 292.813C111.198 290.824 109.62 288.463 108.543 285.864C107.467 283.265 106.913 280.48 106.913 277.667C106.913 271.986 109.169 266.537 113.187 262.52C117.204 258.503 122.652 256.246 128.333 256.246C134.014 256.246 139.463 258.503 143.48 262.52L171 290.253V192.333C171 169.702 179.99 147.997 195.994 131.994C211.997 115.99 233.701 107 256.333 107C278.965 107 300.67 115.99 316.673 131.994C332.676 147.997 341.667 169.702 341.667 192.333V235Z" fill="#FF0505"/>
</svg>
