<svg width="470" height="470" viewBox="0 0 470 470" fill="none" xmlns="http://www.w3.org/2000/svg">
<path d="M235 0.333313C188.587 0.333313 143.217 14.0963 104.626 39.8818C66.0355 65.6673 35.9577 102.317 18.1963 145.197C0.43493 188.077 -4.21225 235.26 4.84241 280.781C13.8971 326.302 36.2469 368.116 69.0656 400.934C101.884 433.753 143.698 456.103 189.219 465.158C234.74 474.212 281.923 469.565 324.803 451.804C367.683 434.042 404.333 403.965 430.118 365.374C455.904 326.783 469.667 281.413 469.667 235C469.667 172.763 444.943 113.074 400.934 69.0656C356.926 25.0571 297.237 0.333313 235 0.333313ZM341.667 277.667C341.667 300.298 332.676 322.003 316.673 338.006C300.67 354.01 278.965 363 256.333 363C233.702 363 211.997 354.01 195.994 338.006C179.99 322.003 171 300.298 171 277.667V179.747L143.48 207.48C139.463 211.497 134.014 213.754 128.333 213.754C122.652 213.754 117.204 211.497 113.187 207.48C109.17 203.463 106.913 198.014 106.913 192.333C106.913 186.652 109.17 181.204 113.187 177.187L177.187 113.187C179.216 111.244 181.608 109.722 184.227 108.707C189.421 106.573 195.246 106.573 200.44 108.707C203.059 109.722 205.451 111.244 207.48 113.187L271.48 177.187C273.48 179.17 275.067 181.529 276.15 184.129C277.233 186.729 277.79 189.517 277.79 192.333C277.79 195.15 277.233 197.938 276.15 200.538C275.067 203.137 273.48 205.497 271.48 207.48C269.497 209.48 267.137 211.067 264.538 212.15C261.938 213.233 259.15 213.79 256.333 213.79C253.517 213.79 250.729 213.233 248.129 212.15C245.529 211.067 243.17 209.48 241.187 207.48L213.667 179.747V277.667C213.667 288.983 218.162 299.835 226.163 307.837C234.165 315.838 245.017 320.333 256.333 320.333C267.649 320.333 278.502 315.838 286.503 307.837C294.505 299.835 299 288.983 299 277.667V235C299 229.342 301.248 223.916 305.248 219.915C309.249 215.914 314.675 213.667 320.333 213.667C325.991 213.667 331.418 215.914 335.418 219.915C339.419 223.916 341.667 229.342 341.667 235V277.667Z" fill="#008F20"/>
</svg>
