<svg width="201" height="201" viewBox="0 0 201 201" fill="none" xmlns="http://www.w3.org/2000/svg">
<rect width="201" height="201" rx="100" fill="#135EE5"/>
<path d="M129.867 53.4729C142.119 55.571 154.167 57.6586 166.224 59.6897C167.503 59.9051 168.113 60.27 168.109 61.7335C168.062 80.6726 168.079 99.6119 168.069 118.551C168.069 119.001 167.946 119.451 167.866 119.998C157.037 118.106 146.316 116.234 135.302 114.31C135.302 129.02 135.302 143.584 135.302 158.607C100.967 152.601 66.9761 146.655 32.8909 140.692C32.8909 120.782 32.8909 101.005 32.8909 80.9763C43.8182 82.8512 54.6588 84.7112 65.728 86.6104C65.728 71.829 65.728 57.2391 65.728 42.3927C87.2009 46.1049 108.433 49.7755 129.867 53.4729Z" fill="#EBE71D"/>
</svg>
